#!OML:ASF E:\Steps\Project 1\Capture day 1\Session 2\Subject.ASF
:FULLY-SPECIFIED
:DEGREES
153
root 16.5626 16.319 20.761 -157.104 -4.21532 178.81
lowerback -28.1899 -1.89742 -5.02887
upperback -0.907197 -1.42457 0.193216
thorax 14.0749 -1.18937 2.36237
lowerneck -6.88493 -1.86881 -0.452465
upperneck 6.53095 -2.75602 3.07662
head 3.38224 -1.27641 0.946761
rclavicle 2.83268e-015 3.57812e-015
rhumerus -34.3879 -19.7681 -78.1627
rradius 29.231
rwrist -0.345616
rhand -9.05002 -412.597
rfingers 7.12502
rthumb 16.8983 278.118
lclavicle 2.83268e-015 3.57812e-015
lhumerus -28.6641 4.06966 81.6564
lradius 21.2103
lwrist -4.97368
lhand -21.7619 -12.8373
lfingers 7.12502
lthumb 4.63871 17.0919
rfemur -18.7934 10.7621 21.7323
rtibia 4.36513
rfoot -16.8681 -5.44156
rtoes -16.4074
lfemur -21.4214 -10.3823 -19.1042
ltibia 10.1034
lfoot -8.5097 -3.15114
ltoes -33.1359
154
root 16.5728 16.3172 20.765 -156.975 -4.22962 178.793
lowerback -28.23 -1.93027 -5.08336
upperback -0.94564 -1.45772 0.206737
thorax 14.0528 -1.20993 2.39272
lowerneck -6.95464 -1.85175 -0.416716
upperneck 6.898 -2.74381 2.96584
head 3.52019 -1.27159 0.904368
rclavicle -6.01324e-015 -1.37161e-014
rhumerus -34.342 -19.6954 -78.2748
rradius 29.3346
rwrist -0.43916
rhand -9.09879 -413.04
rfingers 7.12502
rthumb 16.8513 277.671
lclavicle -6.01324e-015 -1.37161e-014
lhumerus -28.6405 4.02779 81.6268
lradius 21.1075
lwrist -5.06344
lhand -21.8269 -12.6166
lfingers 7.12502
lthumb 4.57595 17.314
rfemur -18.9484 10.7589 21.7477
rtibia 4.34028
rfoot -16.8443 -5.52338
rtoes -16.4804
lfemur -21.6796 -10.3002 -19.056
ltibia 10.2929
lfoot -8.60468 -3.25868
ltoes -32.9014
155
root 16.5811 16.3176 20.7685 -156.901 -4.20021 178.747
lowerback -28.2201 -1.99359 -5.14965
upperback -0.981444 -1.53076 0.240633
thorax 14.0148 -1.24873 2.43761
lowerneck -6.96181 -1.72357 -0.486621
upperneck 7.12104 -2.56435 2.86418
head 3.59519 -1.1874 0.8929
rclavicle 9.69075e-015 2.98177e-015
rhumerus -34.3884 -19.3347 -78.3938
rradius 29.5369
rwrist -0.737639
rhand -9.16103 -413.397
rfingers 7.12502
rthumb 16.7914 277.309
lclavicle 9.69075e-015 2.98177e-015
lhumerus -28.6961 4.18603 81.5718
lradius 21.0536
lwrist -5.14173
lhand -21.9419 -12.4908
lfingers 7.12502
lthumb 4.46492 17.4422
rfemur -19.097 10.7091 21.7214
rtibia 4.43505
rfoot -16.8112 -5.54563
rtoes -16.8982
lfemur -21.9446 -10.2333 -19.0788
ltibia 10.6197
lfoot -8.73629 -3.2985
ltoes -32.9066
156
root 16.5893 16.3155 20.771 -156.822 -4.00916 178.719
lowerback -28.2861 -2.02955 -5.19213
upperback -1.02422 -1.578 0.293717
thorax 14.0025 -1.27688 2.49811
lowerneck -6.85743 -1.5848 -0.689161
upperneck 7.25123 -2.36034 2.84091
head 3.61934 -1.09343 0.932844
rclavicle -6.48535e-015 -1.19271e-015
rhumerus -34.491 -18.9535 -78.4286
rradius 29.7164
rwrist -0.968119
rhand -9.1681 -413.793
rfingers 7.12502
rthumb 16.7846 276.912
lclavicle -6.48535e-015 -1.19271e-015
lhumerus -28.8981 4.56411 81.4747
lradius 21.1029
lwrist -5.33301
lhand -21.9349 -12.561
lfingers 7.12502
lthumb 4.47164 17.3718
rfemur -19.3541 10.6504 21.7052
rtibia 4.72293
rfoot -16.8963 -5.31619
rtoes -16.9922
lfemur -22.1892 -10.2062 -19.0931
ltibia 10.9401
lfoot -8.89103 -3.19493
ltoes -32.5551
157
root 16.596 16.3135 20.7684 -156.885 -3.83398 178.716
lowerback -28.2976 -1.94199 -5.18167
upperback -0.907239 -1.43577 0.208635
thorax 14.1283 -1.20815 2.45482
lowerneck -7.21654 -1.6271 -0.383575
upperneck 7.53123 -2.4477 2.69628
head 3.78212 -1.12991 0.824275
rclavicle 1.24737e-014 3.57812e-015
rhumerus -34.4226 -19.2018 -78.5255
rradius 29.8365
rwrist -0.909129
rhand -9.02732 -413.69
rfingers 7.12502
rthumb 16.9201 277.027
lclavicle 1.24737e-014 3.57812e-015
lhumerus -28.7515 4.44744 81.3793
lradius 21.0741
lwrist -5.35715
lhand -21.8411 -12.6478
lfingers 7.12502
lthumb 4.56219 17.2831
rfemur -19.3581 10.689 21.7103
rtibia 4.84498
rfoot -17.0196 -5.14804
rtoes -16.5752
lfemur -22.1645 -10.3038 -19.0774
ltibia 11.067
lfoot -8.99997 -2.91065
ltoes -32.9231
